<svg xmlns="http://www.w3.org/2000/svg" viewBox="0 0 512 512" id="globe">
  <path fill="#00efd1" d="M409.52,186.75H497.9v138.5H136.02V187.95a22.284,22.284,0,0,1,2.74-1.2H409.52Zm60.25,43.09c4.21,0,6.09-5.38,6.09-8.08,0-7.72-15.34-9.36-22.24-9.36-13.46,0-28.44,5.97-28.44,23.41,0,27.74,37.57,22.36,37.57,39.91,0,7.02-6.09,10.18-13.11,10.18-11.94,0-15.1-9.01-19.9-9.01-3.63,0-6.67,4.92-6.67,8.2,0,6.78,11.7,14.51,27.04,14.51,16.15,0,27.85-8.66,27.85-25.4,0-30.31-37.57-25.28-37.57-39.8,0-5.61,4.8-9.01,13.23-9.01C463.45,225.39,466.14,229.84,469.77,229.84Zm-62.51-9.36a4.939,4.939,0,0,0,.24-1.41c0-3.39-5.39-6.08-9.72-6.08-2.34,0-4.44.81-5.03,3.04l-18.49,63.44-9.95-40.73c-.7-2.93-4.1-4.22-7.38-4.22-3.39,0-6.78,1.29-7.49,4.22l-9.95,40.73L321,216.03c-.58-2.23-2.69-3.04-5.03-3.04-4.33,0-9.72,2.69-9.72,6.08a4.939,4.939,0,0,0,.24,1.41l23.17,73.62c1.06,3.51,5.5,5.15,9.95,5.15,4.33,0,8.9-1.64,9.72-5.15l7.6-31.6,7.5,31.6c.81,3.51,5.38,5.15,9.71,5.15,4.45,0,8.78-1.64,9.95-5.15Zm-115.64-.94c0-3.16-1.52-6.55-4.8-6.55H245.15c-3.39,0-6.67,1.63-6.67,4.79v75.97c0,3.16,3.28,4.8,6.67,4.8h41.67c3.28,0,4.8-3.4,4.8-6.56,0-3.63-1.75-6.79-4.8-6.79H253.7V261.68h17.79c3.28,0,4.8-3.16,4.8-5.86,0-3.16-1.76-6.08-4.8-6.08H253.7V226.33h33.12C289.87,226.33,291.62,223.17,291.62,219.54Zm-78.89,74.21V217.67c0-3.28-3.86-4.68-7.61-4.68-3.86,0-7.61,1.4-7.61,4.68v47.05l-22.59-43.66c-3.62-6.9-5.85-8.07-11.35-8.07-3.86,0-7.61,1.52-7.61,4.79v75.97c0,3.16,3.75,4.8,7.61,4.8,3.75,0,7.61-1.64,7.61-4.8V246.69l25.16,47.06c1.99,3.62,5.15,4.8,8.78,4.8C208.87,298.55,212.73,296.91,212.73,293.75Z"></path>
  <path fill="#00acea" d="M409.52,186.75H254.26a14.158,14.158,0,0,1,11.53-7.65l50.86-3.82a14.138,14.138,0,0,0,12.03-19.46l-1.01-2.47a14.149,14.149,0,0,0-13.63-8.78l-34.62,1.34a12.713,12.713,0,0,1-11.74-6.82v-.01a12.684,12.684,0,0,1,3.82-16.12l20.32-14.7a12.692,12.692,0,0,0,3.86-4.5L310.6,74.54A204.426,204.426,0,0,1,409.52,186.75Z"></path>
  <path fill="#fedb41" d="M371.1 331.22l23.17 26.75a204.019 204.019 0 0 1-213.86 98.34l3.4-31.87a30.276 30.276 0 0 1 11.57-20.74c11.19-8.67 29.41-22.84 43.42-34.01a14.145 14.145 0 0 0-4.49-24.52l-9.74-3.14a14.108 14.108 0 0 1-7.35-5.49c-1.83-2.69-4.98-6.63-8.84-11.2v-.09H367.63v.08A18.958 18.958 0 0 0 371.1 331.22zM328.68 155.82a14.138 14.138 0 0 1-12.03 19.46l-50.86 3.82a14.158 14.158 0 0 0-11.53 7.65H163.39v-.09a22.326 22.326 0 0 0 22.26-23.67l-.06-.9A22.305 22.305 0 0 0 166.8 141.4a22.366 22.366 0 0 1-13.19-7.21L108.82 83.85A203.994 203.994 0 0 1 310.6 74.54l-14.92 29.22a12.692 12.692 0 0 1-3.86 4.5l-20.32 14.7a12.684 12.684 0 0 0-3.82 16.12v.01a12.713 12.713 0 0 0 11.74 6.82l34.62-1.34a14.149 14.149 0 0 1 13.63 8.78z"></path>
  <path fill="#00acea" d="M234.31,345.17a14.145,14.145,0,0,1,4.49,24.52c-14.01,11.17-32.23,25.34-43.42,34.01a30.276,30.276,0,0,0-11.57,20.74l-3.4,31.87a201.634,201.634,0,0,1-51.83-17.11l-5.07-15.9a5.863,5.863,0,0,0-.87-1.73L77.68,359.91a26.313,26.313,0,0,1-4.41-21.19c3.19-14.29,8.19-36.89,8.19-38.27,0-1.72-31.38-54.92-40.6-70.51a26.429,26.429,0,0,1-3.31-9.14L30.3,176.25v-.01a204.552,204.552,0,0,1,78.52-92.39l44.79,50.34a22.366,22.366,0,0,0,13.19,7.21,22.305,22.305,0,0,1,18.79,20.69l.06.9a22.326,22.326,0,0,1-22.26,23.67c-.6,0-1.2-.02-1.81-.07l-13.47-1.09a22.145,22.145,0,0,0-9.35,1.25h-2.74v1.2a22.269,22.269,0,0,0-11.52,15.12l-6.62,30.89a22.318,22.318,0,0,0,10.78,24.07l7.36,4.19v63.03h72.36v.09c3.86,4.57,7.01,8.51,8.84,11.2a14.108,14.108,0,0,0,7.35,5.49Z"></path>
  <path fill="#fedb41" d="M123.51,423.3l5.07,15.9A203.966,203.966,0,0,1,30.3,176.25l7.25,44.55a26.429,26.429,0,0,0,3.31,9.14c9.22,15.59,40.6,68.79,40.6,70.51,0,1.38-5,23.98-8.19,38.27a26.313,26.313,0,0,0,4.41,21.19l44.96,61.66A5.863,5.863,0,0,1,123.51,423.3Z"></path>
  <path fill="#083863" d="M163.5 299.05c4.03 0 8.5-1.821 8.5-5.3V248.686l24.059 45.3-.077 0c1.871 3.4 4.732 5.059 9.063 5.059 4.03 0 7.955-1.821 7.955-5.3V217.67c0-3.578-3.963-5.18-8-5.18-3.741 0-8 1.357-8 5.18v45l-21.642-41.838c-3.742-7.133-6.454-8.338-12.021-8.338-4.036 0-8.337 1.636-8.337 5.29v75.97C155 297.391 159.594 299.05 163.5 299.05zM245.15 299h41.67c3.641 0 5.3-3.485 5.3-6.885 0-4.292-2.18-7.115-5.3-7.115H254V262h17.49c3.48 0 5.3-3.23 5.3-6.39 0-3.27-1.82-6.61-5.3-6.61H254V227h32.82c3.12 0 5.3-3.328 5.3-7.62 0-3.4-1.659-7.38-5.3-7.38H245.15c-3.453 0-7.15 2.146-7.15 5.78v75.97C238 297.391 241.7 299 245.15 299zM329.182 294.245c1.227 4.063 6.384 5.5 10.428 5.5 4.436 0 9.313-1.712 10.206-5.533l7.111-29.565 7.016 29.56c.883 3.826 5.758 5.538 10.2 5.538 4.154 0 9.074-1.443 10.424-5.492l23.169-73.616A5.483 5.483 0 0 0 408 219.07c0-3.706-5.494-6.58-10.22-6.58-2.973 0-4.931 1.212-5.51 3.4L374.3 277.538 364.8 238.624c-.812-3.4-4.745-4.6-7.866-4.6-3.317 0-7.154 1.209-7.976 4.6l-9.506 38.916L321.484 215.9c-.573-2.2-2.531-3.414-5.514-3.414-4.726 0-10.22 2.874-10.22 6.58a5.467 5.467 0 0 0 .263 1.56zM449.64 285.4c-7.125 0-11-3.258-14.123-5.876-2-1.682-3.732-3.134-5.777-3.134-3.958 0-7.17 5.264-7.17 8.7 0 7.085 11.778 15.01 27.54 15.01 17.487 0 28.35-9.924 28.35-25.9 0-18.243-13.4-23.93-24.16-28.5-7.2-3.055-13.41-5.693-13.41-11.3 0-5.408 4.64-8.51 12.73-8.51a22.831 22.831 0 0 1 11.772 2.968 9.8 9.8 0 0 0 4.378 1.482c4.6 0 6.59-5.682 6.59-8.58 0-7.783-14.294-9.86-22.74-9.86-13.99 0-28.94 6.281-28.94 23.91 0 15.775 11.836 21.032 22.279 25.669 8.2 3.644 15.291 6.791 15.291 14.241C462.25 282.857 455.736 285.4 449.64 285.4z"></path>
  <path fill="#083863" d="M497.9,179H415.05a212.3,212.3,0,0,0-100.8-111.455,211.845,211.845,0,0,0-209.714,9.584C68.041,100.289,39.827,133,22.941,173h0A212.295,212.295,0,0,0,39.173,369.654a212.338,212.338,0,0,0,85.9,76.72,209.827,209.827,0,0,0,53.877,17.793A211.537,211.537,0,0,0,401.19,361.858,206.2,206.2,0,0,0,415.046,333H497.9a7.877,7.877,0,0,0,8.1-7.75V186.75A7.877,7.877,0,0,0,497.9,179ZM314,85.591A193.137,193.137,0,0,1,397.752,179H329.1a31.287,31.287,0,0,0,5.317-6.042,22.042,22.042,0,0,0,1.663-20.1l-1.01-2.5a22.261,22.261,0,0,0-21.344-13.761l-34.6,1.332a4.734,4.734,0,0,1-4.278-2.39c-.024-.048-.048-.1-.073-.146a4.709,4.709,0,0,1,1.413-5.945l20.314-14.7a20.757,20.757,0,0,0,6.3-7.348ZM217.85,60.252a193.557,193.557,0,0,1,81.91,17.926l-11.2,21.94a4.689,4.689,0,0,1-1.426,1.66l-20.327,14.7a20.807,20.807,0,0,0-6.369,26c.048.105.1.208.153.311A20.793,20.793,0,0,0,279.729,153.9l34.607-1.34a6.174,6.174,0,0,1,5.93,3.815l1.011,2.472a6.138,6.138,0,0,1-5.226,8.451l-50.867,3.946c-5.871.446-11.3,2.752-15.091,7.752H190.065a30.748,30.748,0,0,0,3.567-16.417l-.056-.9a30.335,30.335,0,0,0-25.521-28.164,14.415,14.415,0,0,1-8.469-4.635L121.209,85.743A195.177,195.177,0,0,1,217.85,60.252ZM30.311,176h-.023l-5.072-2.074ZM52.665,361.082a196.309,196.309,0,0,1-25.038-151.45L29.655,222.1a34.359,34.359,0,0,0,4.319,11.916c20.342,34.395,35.445,60.437,39.189,67.542-.651,3.314-2.5,12.11-7.7,35.428a34.347,34.347,0,0,0,5.755,27.642l40.931,56.134A196.39,196.39,0,0,1,52.665,361.082Zm123.19,62.507-2.46,23.063a193.772,193.772,0,0,1-38.256-13.215l-3.98-12.482a13.794,13.794,0,0,0-2.055-4.1L84.152,355.207a18.328,18.328,0,0,1-3.074-14.744c8.382-37.549,8.382-38.746,8.382-40.013,0-2.766,0-3.265-17.928-34.077-9.284-15.957-19.727-33.643-23.778-40.491a18.4,18.4,0,0,1-2.308-6.367l-6.873-42.23A195.275,195.275,0,0,1,107.445,94.34l40.192,45.172a30.444,30.444,0,0,0,17.909,9.789,14.3,14.3,0,0,1,12.061,13.321l.058.85A14.325,14.325,0,0,1,163.39,178.66c-.423,0-.8-.014-1.165-.044l-13.48-.966A32.7,32.7,0,0,0,137.467,179H136.02a7.884,7.884,0,0,0-6.978,3.969,30.057,30.057,0,0,0-12.364,18.487l-6.62,30.857A30.179,30.179,0,0,0,124.692,265L128,266.871V325.25a7.808,7.808,0,0,0,8.02,7.75h68.544a82.881,82.881,0,0,1,6.043,7.917,22.322,22.322,0,0,0,11.508,8.665l9.742,3.171a6.165,6.165,0,0,1,1.955,10.674c-13.463,10.735-31,24.386-43.331,33.945A38.459,38.459,0,0,0,175.855,423.589ZM128,224.821v22.091a15.409,15.409,0,0,1-2.318-11.276ZM317.052,424.786a195.544,195.544,0,0,1-99.2,26.964,197.614,197.614,0,0,1-28.683-2.1l2.6-24.363a22.379,22.379,0,0,1,8.514-15.26c12.377-9.59,29.971-23.287,43.511-34.082a22.145,22.145,0,0,0-7.026-38.386l-9.749-3.268A2.846,2.846,0,0,1,224.954,333H362.7c.711,1,1.484,2.326,2.358,3.333l19.373,22.428A197.054,197.054,0,0,1,317.052,424.786Zm75.686-81.055L383.443,333h14.3A117.2,117.2,0,0,1,392.738,343.731ZM490,317H144V195H490Z"></path>
</svg>
